<svg xmlns="http://www.w3.org/2000/svg" xmlns:xlink="http://www.w3.org/1999/xlink" width="24" height="24" viewBox="0 0 24 24"><defs><style>.a{fill:none;}.b{clip-path:url(#a);}.c{fill:#e02020;}</style><clipPath id="a"><rect class="a" width="24" height="24"/></clipPath></defs><rect class="a" width="24" height="24"/><g class="b"><path class="c" d="M14,20H2a2,2,0,0,1-2-2V2A2,2,0,0,1,2,0H9.033l.029.006a1.017,1.017,0,0,1,.259.05h.041A.49.49,0,0,1,9.415.1a1,1,0,0,1,.293.2l6,6a.98.98,0,0,1,.2.293c.009.021.015.041.022.064l.01.03a.975.975,0,0,1,.05.258A.1.1,0,0,0,16,6.975v.006A.129.129,0,0,1,16,7V18a2.01,2.01,0,0,1-.586,1.414A1.987,1.987,0,0,1,14,20ZM6.724,12v5H7.93l.081,0a1.672,1.672,0,0,0,1.251-.562,2.3,2.3,0,0,0,.486-1.549v-.81a2.285,2.285,0,0,0-.5-1.526A1.638,1.638,0,0,0,8.018,12H6.724Zm3.7,0v5h.94v-2.04h1.46v-.838h-1.46V12.842H13V12H10.424ZM3,12v5H3.94v-1.76h.625l.083,0a1.473,1.473,0,0,0,1.041-.428,1.607,1.607,0,0,0,.41-1.16,1.72,1.72,0,0,0-.412-1.193A1.4,1.4,0,0,0,4.648,12H3ZM9,2V7h5L9,2ZM8.026,16.167a.771.771,0,0,1-.08,0H7.664V12.842h.384a.716.716,0,0,1,.577.293,1.9,1.9,0,0,1,.183.976v.869a1.693,1.693,0,0,1-.2.922A.766.766,0,0,1,8.026,16.167ZM4.6,14.4H3.939V12.842h.654a.473.473,0,0,1,.4.227,1.046,1.046,0,0,1,.15.594.9.9,0,0,1-.148.55A.5.5,0,0,1,4.6,14.4Z" transform="translate(4 1.999)"/></g></svg>